<svg width="23" height="23" viewBox="0 0 23 23" fill="none" xmlns="http://www.w3.org/2000/svg">
<path d="M11.5 14.95L16.1 10.35H6.9L11.5 14.95ZM11.5 23C9.90917 23 8.41417 22.6979 7.015 22.0938C5.61583 21.4904 4.39875 20.6713 3.36375 19.6363C2.32875 18.6013 1.50957 17.3842 0.9062 15.985C0.302067 14.5858 0 13.0908 0 11.5C0 9.90917 0.302067 8.41417 0.9062 7.015C1.50957 5.61583 2.32875 4.39875 3.36375 3.36375C4.39875 2.32875 5.61583 1.50918 7.015 0.90505C8.41417 0.301683 9.90917 0 11.5 0C13.0908 0 14.5858 0.301683 15.985 0.90505C17.3842 1.50918 18.6013 2.32875 19.6363 3.36375C20.6713 4.39875 21.4904 5.61583 22.0938 7.015C22.6979 8.41417 23 9.90917 23 11.5C23 13.0908 22.6979 14.5858 22.0938 15.985C21.4904 17.3842 20.6713 18.6013 19.6363 19.6363C18.6013 20.6713 17.3842 21.4904 15.985 22.0938C14.5858 22.6979 13.0908 23 11.5 23ZM11.5 20.7C14.0683 20.7 16.2437 19.8087 18.0262 18.0262C19.8087 16.2437 20.7 14.0683 20.7 11.5C20.7 8.93167 19.8087 6.75625 18.0262 4.97375C16.2437 3.19125 14.0683 2.3 11.5 2.3C8.93167 2.3 6.75625 3.19125 4.97375 4.97375C3.19125 6.75625 2.3 8.93167 2.3 11.5C2.3 14.0683 3.19125 16.2437 4.97375 18.0262C6.75625 19.8087 8.93167 20.7 11.5 20.7Z" fill="#A4A4A4"/>
</svg>
